<svg xmlns="http://www.w3.org/2000/svg" height="48" viewBox="0 -960 960 960" width="48"><path d="M483-166q-131.75 0-222.875-91.125T169-480q0-116.417 72.792-202.708Q314.583-769 425-790h-7.646q-2.354 0 .646-1.129Q409-761 405.5-730.5 402-700 402-672q0 113.667 80.167 193.333Q562.333-399 676-399q28.891 0 56.946-2Q761-403 793-414q-2-2-1.5-3t.5-5q-20 110.417-106.542 183.208Q598.917-166 483-166Zm0-35q86 0 156.5-48.5T740-373q-15 4-31.667 6.5Q691.667-364 677-364q-128.818 0-219.409-90.007Q367-544.013 367-672q0-17 2-33t8-33q-78 33-125.5 103.211Q204-564.579 204-480q0 116.814 81.093 197.907Q366.186-201 483-201Zm-11-268Z"/></svg>