<svg xmlns="http://www.w3.org/2000/svg" height="48" viewBox="0 -960 960 960" width="48"><path d="M223-156q-27.5 0-47.25-19.75T156-223v-514q0-27.5 19.75-47.25T223-804h353l-35 35H223q-12 0-22 10t-10 22v514q0 12 10 22t22 10h514q12 0 22-10t10-22v-324l35-35v359q0 27.5-19.75 47.25T737-156H223Zm257-324Zm-74 74v-94l358-358q4-5 10.18-7 6.181-2 13.361-2 7.459 0 13.703 2.5T813-858l40 39q6.609 5.958 9.304 13.348 2.696 7.39 2.696 14.828t-2.63 13.85Q859.739-770.561 855-765L495-406h-89Zm423-384-40-45 40 45ZM441-441h40l277-276-20-21-23-22-274 274v45Zm297-297-23-22 23 22 20 21-20-21Z"/></svg>