<svg xmlns="http://www.w3.org/2000/svg" height="48" viewBox="0 -960 960 960" width="48"><path d="m616-450-28-29q12-64-33.663-102.5T459-608l-29-28q8-3 21.5-6t28.816-3Q541-645 583-603t42 102.684q0 15.316-2.5 28.96T616-450Zm128 125-26-24q41-31 73.5-69.016 32.5-38.017 52.5-82.4Q793-605 696.129-666.5 599.258-728 482.647-728q-32.649 0-66.311 5.5Q382.674-717 357-709l-27-28q32-12 72.5-19t79.889-7Q609-763 719.5-691.5 830-620 882-500q-22 51-56.5 94T744-325Zm55 213L641-270q-24 13-66.651 23-42.652 10-94.349 10-130 0-239.5-71.5T78-500q23-54 63-101.5t87-82.77L110-801l25-25 688 688-24 26ZM253-658q-36 26-76.5 69T116-500q50.578 105.082 148.289 166.541Q362-272 482-272q40 0 80-8t53-16l-72-73q-9 5-28 9.5t-35 4.5q-61 0-103-42t-42-103q0-14.065 4.5-32.532Q344-551 349-563l-96-95Zm285 132Zm-103 52Z"/></svg>