<svg xmlns="http://www.w3.org/2000/svg" height="48" viewBox="0 -960 960 960" width="48"><path d="M480-116q-74.64 0-141.452-28.622T222.314-222.31q-49.422-49.066-77.868-115.884Q116-405.012 116-479.826q0-74.814 28.622-141.626 28.622-66.811 77.688-116.234 49.066-49.422 115.884-77.868Q405.012-844 479.826-844q74.814 0 141.626 28.635 66.811 28.636 116.234 77.726 49.422 49.089 77.868 115.939Q844-554.85 844-480v39q0 50-35.029 84.5Q773.943-322 724-322q-37.361 0-66.68-21Q628-364 615-397q-23 34-58.115 54.5T480-322q-65.415 0-111.708-46.095Q322-414.19 322-480.514q0-67.134 46.253-112.31T479.866-638q65.359 0 111.746 45.18Q638-547.64 638-479.879V-441q0 35.613 25.5 59.806Q689-357 723.5-357t60-24.194Q809-405.387 809-441v-39q0-137.256-95.896-233.128Q617.208-809 479.916-809q-137.291 0-233.104 95.896Q151-617.208 151-479.916q0 137.291 95.638 233.104Q342.276-151 480.077-151H686v35H480Zm.235-241Q531-357 567-393.201t36-86.917q0-51.382-36.235-87.132-36.236-35.75-87-35.75Q429-603 393-567.029q-36 35.97-36 87.5 0 50.029 36.235 86.279 36.236 36.25 87 36.25Z"/></svg>