<?xml version="1.0" encoding="UTF-8" standalone="no"?>
<!-- Created with Inkscape (http://www.inkscape.org/) -->

<svg
   width="174.3382mm"
   height="148.76091mm"
   viewBox="0 0 174.3382 148.76091"
   version="1.1"
   id="svg5"
   inkscape:version="1.2.2 (732a01da63, 2022-12-09)"
   sodipodi:docname="logo design.svg"
   xml:space="preserve"
   xmlns:inkscape="http://www.inkscape.org/namespaces/inkscape"
   xmlns:sodipodi="http://sodipodi.sourceforge.net/DTD/sodipodi-0.dtd"
   xmlns="http://www.w3.org/2000/svg"
   xmlns:svg="http://www.w3.org/2000/svg"><sodipodi:namedview
     id="namedview7"
     pagecolor="#ffffff"
     bordercolor="#000000"
     borderopacity="0.25"
     inkscape:showpageshadow="2"
     inkscape:pageopacity="0.0"
     inkscape:pagecheckerboard="0"
     inkscape:deskcolor="#d1d1d1"
     inkscape:document-units="mm"
     showgrid="false"
     inkscape:zoom="1.4324916"
     inkscape:cx="91.449055"
     inkscape:cy="391.2763"
     inkscape:window-width="1920"
     inkscape:window-height="991"
     inkscape:window-x="-9"
     inkscape:window-y="-9"
     inkscape:window-maximized="1"
     inkscape:current-layer="layer1" /><defs
     id="defs2" /><g
     inkscape:label="Layer 1"
     inkscape:groupmode="layer"
     id="layer1"
     transform="translate(-26.643335,-79.145858)"><path
       id="rect961"
       style="display:inline;fill:#0078ff;fill-opacity:1;stroke:none;stroke-width:1;stroke-linecap:square;stroke-dasharray:none;stroke-opacity:1"
       d="m 26.643335,79.537677 0.260966,140.921213 23.813168,-28.68911 1.523787,-91.72737 43.971828,-0.0653 -5.508696,43.49085 40.771702,-42.3809 0.13029,-21.941202 z"
       sodipodi:nodetypes="ccccccccc" /><path
       id="path2540"
       style="display:inline;fill:#ffb400;fill-opacity:1;stroke:none;stroke-width:1;stroke-linecap:square;stroke-dasharray:none;stroke-opacity:1"
       d="m 170.50587,85.772542 -31.94017,103.865498 -3.02307,-80.66485 -40.394949,40.70605 41.742159,70.18641 64.09169,-109.52768 z m -80.263316,68.874868 -60.175648,73.25937 80.545464,-37.876 z"
       sodipodi:nodetypes="ccccccccccc" /><path
       id="path365"
       style="display:inline;fill:#004b9e;fill-opacity:1;stroke-width:1;stroke-linecap:square"
       d="m 46.719324,95.952989 -1.682033,95.856251 -18.127616,28.67721 23.844977,-28.72402 1.486815,-91.66812 z m 56.159366,3.656624 -9.946683,0.37207 3.280937,-0.0046 -5.508708,43.490887 6.44095,-6.6952 z"
       sodipodi:nodetypes="cccccccccccc" /><path
       id="path1216"
       style="display:inline;fill:#9f7000;fill-opacity:1;stroke-width:1;stroke-linecap:square"
       d="m 170.50608,85.772732 -31.81718,103.466038 -0.0248,7.27862 -0.78342,3.91811 42.6372,-106.592977 z m -34.96324,23.200648 -40.394948,40.70605 3.658692,6.15156 c 7.840046,-6.84846 30.999516,-28.21119 37.219946,-33.95555 z m -45.190408,45.72905 -60.262583,73.1827 17.525509,-8.06467 46.643813,-58.3324 z"
       inkscape:export-filename="..\..\Users\D\Desktop\logo.svg"
       inkscape:export-xdpi="96"
       inkscape:export-ydpi="96"
       sodipodi:nodetypes="cccccccccccccccc" /></g></svg>
