<svg xmlns="http://www.w3.org/2000/svg" height="48" viewBox="0 -960 960 960" width="48"><path d="M759.867-156Q661-156 554-208q-107-52-200.5-145.5T208-554q-52-107-52-205.867 0-19.99 11.786-32.062Q179.571-804 199-804h91.727q18.662 0 30.967 10.5Q334-783 339-765l20.929 92.641Q361-657 357-643.633q-4 13.366-11.229 19.859L256-541q26 47 57 87.5t65 75.5q37 39 79.5 69.5T550-250l92-92q9-10 18.14-13 9.139-3 21.86-1l82 19q17.562 3 28.781 16.618Q804-306.765 804-289v90q0 19.429-12.071 31.214Q779.857-156 759.867-156ZM239-572l81-73q4-4 5.5-11t.5-13l-19.962-84q-1-8-6.5-12t-13.5-4H207q-6 0-10 4t-4 10q-1 42 11 87t35 96Zm346 339q39 21 87.5 31t82.5 11q6 1 10-3.5t4-10.5v-80q0-8-4-13.5t-12-6.5l-71-16q-6-1-10.5.5T662-315l-77 82ZM239-572Zm346 339Z"/></svg>