<svg xmlns="http://www.w3.org/2000/svg" height="48" viewBox="0 -960 960 960" width="48"><path d="M480.606-121q-24.106 0-41.356-17.123T422-179.142q0-22.958 17.05-40.908Q456.1-238 479.894-238q24.606 0 41.356 17.967t16.75 41.25q0 23.283-16.644 40.533T480.606-121Zm0-301q-24.106 0-41.356-17.05T422-479.894q0-24.606 17.05-41.356T479.894-538q24.606 0 41.356 16.644t16.75 40.75q0 24.106-16.644 41.356T480.606-422Zm0-300q-24.106 0-41.356-17.427T422-781.177q0-24.323 17.05-41.573T479.894-840q24.606 0 41.356 17.392Q538-805.217 538-780.894t-16.644 41.609Q504.712-722 480.606-722Z"/></svg>