<svg xmlns="http://www.w3.org/2000/svg" height="48" viewBox="0 -960 960 960" width="48"><path d="M427-315H281q-68.475 0-116.738-48.289Q116-411.579 116-480.092t48.262-116.71Q212.525-645 281-645h146v35H281q-54.333 0-92.167 37.765-37.833 37.764-37.833 92Q151-426 188.833-388q37.834 38 92.167 38h146v35Zm-88-148v-35h283v35H339Zm194 148v-35h146q54.333 0 92.167-37.765 37.833-37.764 37.833-92Q809-534 771.167-572 733.333-610 679-610H533v-35h146q68.475 0 116.737 48.289Q844-548.421 844-479.908t-48.263 116.71Q747.475-315 679-315H533Z"/></svg>