<svg xmlns="http://www.w3.org/2000/svg" height="48" viewBox="0 -960 960 960" width="48"><path d="M480.297-116Q405-116 338.5-144.5t-116.5-78q-50-49.5-78-115.949-28-66.448-28-143.02Q116-556 144-623t78-115.5q50-48.5 116.449-77 66.448-28.5 142.02-28.5Q555-844 621.5-815.5t116.5 77q50 48.5 78 115.638T844-481q0 76.404-28 142.702T738-222.5q-50 49.5-116.726 78T480.297-116ZM480-150q41-46 65-94t40-109H375q17 65 41.594 112.658T480-150Zm-34-3q-32-32-58.875-86.826Q360.25-294.651 347-353H175q37 85.806 108 137.403Q354-164 446-153Zm69 0q87-8 159.5-62T786-353H614.142Q596-293 569-239q-27 54-54 86ZM167.035-380H342q-5-27-7-52.5t-2-48.5q0-23 2-48t7-51H167.035Q159-559 155-533t-4 52q0 27 4 53t12.035 48Zm201.996 0H591q5-28 7-52t2-49q0-24-2-47.5t-7.031-51.5H369q-5 28-7 51.5t-2 47.5q0 25 2 49t7.031 52ZM619-380h175q7-22 11-48t4-53q0-26-4-52t-11-47H620q3 30 5 54.175 2 24.175 2 44.825 0 23-2 48t-6 53Zm-4.858-227H786q-39-87-109-139.5T514-809q32 38 58.5 91t41.642 111ZM375-607h211q-17-59.721-42.5-111.361Q518-770 480-813q-36 40-61 89t-44 117Zm-200 0h171.816Q362-665 387.5-717.5T445-809q-93 11-163 62.5T175-607Z"/></svg>