<?xml version="1.0" encoding="UTF-8" standalone="no"?>
<!-- Uploaded to: SVG Repo, www.svgrepo.com, Generator: SVG Repo Mixer Tools -->

<svg
   width="800px"
   height="800px"
   viewBox="0 0 266.895 266.895"
   version="1.1"
   id="svg438"
   sodipodi:docname="facebook.svg"
   inkscape:version="1.2.2 (732a01da63, 2022-12-09)"
   xmlns:inkscape="http://www.inkscape.org/namespaces/inkscape"
   xmlns:sodipodi="http://sodipodi.sourceforge.net/DTD/sodipodi-0.dtd"
   xmlns="http://www.w3.org/2000/svg"
   xmlns:svg="http://www.w3.org/2000/svg">
  <defs
     id="defs442" />
  <sodipodi:namedview
     id="namedview440"
     pagecolor="#ffffff"
     bordercolor="#000000"
     borderopacity="0.25"
     inkscape:showpageshadow="2"
     inkscape:pageopacity="0.0"
     inkscape:pagecheckerboard="0"
     inkscape:deskcolor="#d1d1d1"
     showgrid="false"
     inkscape:zoom="0.71064232"
     inkscape:cx="98.502437"
     inkscape:cy="453.8148"
     inkscape:window-width="1920"
     inkscape:window-height="991"
     inkscape:window-x="-9"
     inkscape:window-y="-9"
     inkscape:window-maximized="1"
     inkscape:current-layer="svg438" />
  <path
     id="path434"
     d="M 14.73005 0 C 6.5930579 0 3.1606686e-15 6.5940579 0 14.73005 L 0 252.1643 C 0 260.29929 6.5930579 266.8937 14.73005 266.8937 L 142.5549 266.8937 L 142.5549 163.539 L 107.77384 163.539 L 107.77384 123.2591 L 142.5549 123.2591 L 142.5549 93.553995 C 142.5549 59.08103 163.60927 40.309876 194.36224 40.309876 C 209.09123 40.309876 221.75322 41.407172 225.44222 41.897172 L 225.44222 77.922784 L 204.11277 77.93321 C 187.38879 77.93321 184.15103 85.879794 184.15103 97.541782 L 184.15103 123.2591 L 224.03802 123.2591 L 218.84413 163.539 L 184.15169 163.539 L 184.15169 266.8937 L 252.1643 266.8937 L 252.1643 266.895 C 260.29829 266.895 266.89305 260.29894 266.89305 252.16495 L 266.89305 14.73005 C 266.89305 6.5930579 260.29729 3.1606686e-15 252.1643 0 L 14.73005 0 z " />
</svg>
