<svg xmlns="http://www.w3.org/2000/svg" height="48" viewBox="0 -960 960 960" width="48"><path d="M480-361q48.583 0 84.292-34.958Q600-430.917 600-480q0-48.583-35.708-84.292Q528.583-600 480-600t-83.792 35.708Q361-528.583 361-480t34.958 83.792Q430.917-361 480-361Zm-.067 35q-65.067 0-109.5-44.433Q326-414.866 326-479.933 326-545 370.433-590t109.5-45Q545-635 590-590t45 110.067q0 65.067-45 109.5Q545-326 479.933-326ZM207-463H60v-35h147v35Zm694 0H754v-35h147v35ZM463-754v-147h35v147h-35Zm0 694v-147h35v147h-35ZM277-661l-92-90 24-25 90 90-22 25Zm475 476-90-88 23-26 90 89-23 25Zm-91-500 90-90 25 23-90 91-25-24ZM185-209l88-89 24 22-88 92-24-25Zm295-271Z"/></svg>