<?xml version="1.0" encoding="UTF-8" standalone="no"?>
<!-- Uploaded to: SVG Repo, www.svgrepo.com, Generator: SVG Repo Mixer Tools -->

<svg
   width="800px"
   height="800px"
   viewBox="5.368 5.414 53.9 53.9"
   version="1.1"
   id="svg8"
   sodipodi:docname="youtube.svg"
   inkscape:version="1.2.2 (732a01da63, 2022-12-09)"
   xmlns:inkscape="http://www.inkscape.org/namespaces/inkscape"
   xmlns:sodipodi="http://sodipodi.sourceforge.net/DTD/sodipodi-0.dtd"
   xmlns="http://www.w3.org/2000/svg"
   xmlns:svg="http://www.w3.org/2000/svg">
  <defs
     id="defs12" />
  <sodipodi:namedview
     id="namedview10"
     pagecolor="#ffffff"
     bordercolor="#000000"
     borderopacity="0.25"
     inkscape:showpageshadow="2"
     inkscape:pageopacity="0.0"
     inkscape:pagecheckerboard="0"
     inkscape:deskcolor="#d1d1d1"
     showgrid="false"
     inkscape:zoom="1.005"
     inkscape:cx="280.59701"
     inkscape:cy="400.49751"
     inkscape:window-width="1920"
     inkscape:window-height="991"
     inkscape:window-x="-9"
     inkscape:window-y="-9"
     inkscape:window-maximized="1"
     inkscape:current-layer="svg8" />
  <path
     fill="#CD201F"
     d="M27.691 51.242c-10.265-.189-13.771-.359-15.926-.803-1.458-.295-2.725-.95-3.654-1.9-.718-.719-1.289-1.816-1.732-3.338-.38-1.268-.528-2.323-.739-4.9-.323-5.816-.4-10.571 0-15.884.33-2.934.49-6.417 2.682-8.449 1.035-.951 2.239-1.563 3.591-1.816 2.112-.401 11.11-.718 20.425-.718 9.294 0 18.312.317 20.426.718 1.689.317 3.273 1.267 4.203 2.492 2 3.146 2.035 7.058 2.238 10.118.084 1.458.084 9.737 0 11.195-.316 4.836-.57 6.547-1.288 8.321-.444 1.12-.823 1.711-1.479 2.366a7.085 7.085 0 0 1-3.76 1.922c-8.883.668-16.426.813-24.987.676zM41.294 31.81c-4.942-2.641-9.674-5.09-14.511-7.625v15.166c5.09-2.767 10.456-5.302 14.532-7.562l-.021.021z"
     id="path6"
     style="fill:#000000" />
</svg>
